<?xml version="1.0" encoding="utf-8"?>
<!-- Generator: Adobe Illustrator 26.2.1, SVG Export Plug-In . SVG Version: 6.00 Build 0)  -->
<svg version="1.1" id="Livello_1" xmlns="http://www.w3.org/2000/svg" xmlns:xlink="http://www.w3.org/1999/xlink" x="0px" y="0px"
	 viewBox="0 0 500 200" style="enable-background:new 0 0 500 200;" xml:space="preserve">
<style type="text/css">
	.st0{fill:#03E9F4;}
	.st1{fill:#6F8AF7;}
	.st2{fill:#182E6B;}
</style>
<path class="st0" d="M2.9,86.9c-0.9-27.1,22-49.7,49-50.8c12.4-0.5,23.8,3.3,32.9,10.1c0,0,4.3,2.6,0,5.2L37.1,93
	c0,0-2.4,3.4-5.1-0.9l-9.6-12.2c0,0-1.7-2.3-4.3,0L6.9,89C6.9,89,3.1,91.6,2.9,86.9z"/>
<path class="st1" d="M37.2,151.2c0,0,5.8,5.4,8.8,7.5c2.1,1.5,5.3,3.7,6.9,4.9c0.7,0.5,1.5,0.5,2.2,0.1c20.9-13.6,45.6-41.5,50-67.5
	c0,0,0.3-1.8,0-2.4c0,0-0.8-3.1-3.9-1.2l-63.3,54.9C38.1,147.3,35.5,149,37.2,151.2z"/>
<path class="st2" d="M27,140.7c-3.4-4-6.6-8.1-9.4-12.5c-5.8-9.2-9.7-18.4-11.9-25.9c0,0-1.7-3.1,1.2-4.4l11-8.7
	c0,0,2.3-1.8,3.7,0.5l10.3,13.1c0,0,1.8,3.1,4.3,0.3l55.1-47.9c0,0,1.8-1.8,3.2,0c5.2,6.7,9.1,14.5,10.7,23.2c0,0,0.4,0.9-1,2.1
	l-71.3,62.1c0,0-2.2,2.5-3.5,0.5L27,140.7z"/>
<g>
	<path class="st0" d="M152.5,59.2V68h-17.3v8.8h16.7v8.8h-16.7v17.1h-9.3V59.2H152.5z"/>
	<path class="st0" d="M192.8,102.7h-9.9l-3-8.2h-16.1l-3,8.2h-10l16.1-43.5h10L192.8,102.7z M171.8,72.7l-4.9,12.9h9.6L171.8,72.7z"
		/>
	<path class="st0" d="M195.2,69.8c2-3.4,4.7-6.2,8.2-8.2c3.4-2,7.2-3,11.3-3c4.1,0,8,1.1,11.5,3.2c3.5,2.2,6.3,5,8.2,8.5l-8.2,4.4
		c-1.2-2.1-2.8-3.7-4.8-4.9c-2-1.2-4.3-1.8-6.7-1.8c-2.4,0-4.5,0.6-6.6,1.7c-2,1.2-3.6,2.7-4.8,4.8c-1.2,2-1.7,4.2-1.7,6.6
		c0,2.4,0.6,4.5,1.8,6.6c1.2,2,2.8,3.6,4.8,4.8c2,1.2,4.2,1.8,6.5,1.8c2.4,0,4.7-0.6,6.8-1.9c2.1-1.3,3.7-3,4.8-5.1l8.3,4.5
		c-1.9,3.6-4.7,6.4-8.2,8.6c-3.5,2.2-7.4,3.3-11.6,3.3c-4.1,0-7.8-1-11.3-3c-3.4-2-6.2-4.8-8.2-8.2c-2-3.4-3-7.2-3-11.3
		C192.2,77,193.2,73.3,195.2,69.8z"/>
	<path class="st0" d="M268.9,59.2V68h-11.5v34.7H248V68h-11.4v-8.8H268.9z"/>
	<path class="st0" d="M290.8,69.8c2-3.4,4.7-6.2,8.2-8.2c3.4-2,7.2-3,11.3-3c4.1,0,8,1.1,11.5,3.2c3.5,2.2,6.3,5,8.2,8.5l-8.2,4.4
		c-1.2-2.1-2.8-3.7-4.8-4.9c-2-1.2-4.3-1.8-6.7-1.8c-2.4,0-4.6,0.6-6.6,1.7c-2,1.2-3.6,2.7-4.8,4.8c-1.2,2-1.7,4.2-1.7,6.6
		c0,2.4,0.6,4.5,1.8,6.6c1.2,2,2.8,3.6,4.8,4.8c2,1.2,4.2,1.8,6.5,1.8c2.4,0,4.7-0.6,6.8-1.9c2.1-1.3,3.7-3,4.8-5.1l8.3,4.5
		c-2,3.6-4.7,6.4-8.2,8.6c-3.5,2.2-7.4,3.3-11.6,3.3c-4.1,0-7.8-1-11.3-3c-3.4-2-6.2-4.8-8.2-8.2c-2-3.4-3-7.2-3-11.3
		C287.8,77,288.8,73.3,290.8,69.8z"/>
	<path class="st0" d="M362.2,76V59.2h9.3v43.5h-9.3V84.9h-18.8v17.8h-9.3V59.2h9.3V76H362.2z"/>
	<path class="st0" d="M389.3,85v8.8H407v8.9h-27V59.2h26.6V68h-17.3v8.1h15.8V85H389.3z"/>
	<path class="st0" d="M413,69.8c2-3.4,4.7-6.2,8.2-8.2c3.4-2,7.2-3,11.3-3c4.1,0,8,1.1,11.5,3.2c3.5,2.2,6.3,5,8.2,8.5l-8.2,4.4
		c-1.2-2.1-2.8-3.7-4.8-4.9c-2-1.2-4.3-1.8-6.7-1.8c-2.4,0-4.6,0.6-6.6,1.7c-2,1.2-3.6,2.7-4.8,4.8c-1.2,2-1.7,4.2-1.7,6.6
		c0,2.4,0.6,4.5,1.8,6.6c1.2,2,2.8,3.6,4.8,4.8c2,1.2,4.2,1.8,6.5,1.8c2.4,0,4.7-0.6,6.8-1.9c2.1-1.3,3.7-3,4.8-5.1l8.3,4.5
		c-2,3.6-4.7,6.4-8.2,8.6c-3.5,2.2-7.4,3.3-11.6,3.3c-4.1,0-7.8-1-11.3-3c-3.4-2-6.2-4.8-8.2-8.2c-2-3.4-3-7.2-3-11.3
		C410,77,411,73.3,413,69.8z"/>
	<path class="st0" d="M494.9,102.6l-11.7,0.1l-12.7-16.3l-4.2,5v11.3H457V59.2h9.3v17.5l14.8-17.5h12L476.6,79L494.9,102.6z"/>
</g>
<g>
	<path class="st0" d="M236.2,131.5v6.7h13.4v6.7h-20.4V112h20.1v6.7h-13.1v6.1h12v6.7H236.2z"/>
	<path class="st0" d="M273.5,130.8V112h7.1v32.9h-6l-13.2-20.6v20.6h-7.1V112h7.1L273.5,130.8z"/>
	<path class="st0" d="M300.1,127h18v3c0,2.8-0.8,5.4-2.3,7.8c-1.5,2.4-3.5,4.3-6.1,5.7c-2.6,1.4-5.3,2.1-8.3,2.1
		c-3.1,0-5.9-0.8-8.5-2.3c-2.6-1.5-4.7-3.6-6.2-6.2c-1.5-2.6-2.3-5.4-2.3-8.5c0-3.1,0.8-5.9,2.3-8.5c1.5-2.6,3.6-4.7,6.2-6.2
		c2.6-1.5,5.4-2.3,8.5-2.3c2.8,0,5.3,0.6,7.7,1.9c2.4,1.3,4.4,3,6,5.1l-5.6,4.4c-0.9-1.3-2-2.4-3.5-3.1c-1.4-0.8-3-1.2-4.6-1.2
		c-1.8,0-3.4,0.4-5,1.3c-1.5,0.9-2.7,2.1-3.6,3.6s-1.3,3.2-1.3,5c0,1.8,0.4,3.4,1.3,5c0.9,1.5,2.1,2.7,3.6,3.6
		c1.5,0.9,3.2,1.3,4.9,1.3c1.8,0,3.5-0.4,5-1.3c1.5-0.8,2.6-2,3.5-3.5h-9.8V127z"/>
	<path class="st0" d="M322.7,144.9V112h7.1v32.9H322.7z"/>
	<path class="st0" d="M355.3,130.8V112h7.1v32.9h-6l-13.2-20.6v20.6h-7.1V112h7.1L355.3,130.8z"/>
	<path class="st0" d="M375.8,131.5v6.7h13.4v6.7h-20.4V112h20.1v6.7h-13.1v6.1h12v6.7H375.8z"/>
</g>
<g>
	<path class="st1" d="M258.5,154.1c0.4,0.2,0.7,0.5,0.9,0.9c0.2,0.4,0.3,0.8,0.3,1.3c0,0.4-0.1,0.9-0.3,1.2
		c-0.2,0.4-0.5,0.7-0.9,0.9c-0.4,0.2-0.8,0.3-1.2,0.3H256v2.5h-1.6v-7.5h2.8C257.7,153.8,258.1,153.9,258.5,154.1z M257.2,157.2
		c0.3,0,0.5-0.1,0.7-0.3c0.2-0.2,0.3-0.4,0.3-0.7c0-0.3-0.1-0.5-0.3-0.7c-0.2-0.2-0.4-0.3-0.7-0.3H256v1.9H257.2z"/>
	<path class="st1" d="M262,160.9c-0.6-0.3-1.1-0.8-1.4-1.4c-0.3-0.6-0.5-1.2-0.5-1.9c0-0.7,0.2-1.3,0.5-1.9c0.3-0.6,0.8-1.1,1.4-1.4
		s1.2-0.5,1.9-0.5c0.7,0,1.3,0.2,1.9,0.5c0.6,0.3,1.1,0.8,1.4,1.4c0.3,0.6,0.5,1.2,0.5,1.9c0,0.7-0.2,1.3-0.5,1.9
		c-0.3,0.6-0.8,1.1-1.4,1.4c-0.6,0.3-1.2,0.5-1.9,0.5C263.2,161.4,262.5,161.2,262,160.9z M265,159.5c0.3-0.2,0.6-0.5,0.8-0.8
		s0.3-0.7,0.3-1.1c0-0.4-0.1-0.8-0.3-1.1c-0.2-0.3-0.5-0.6-0.8-0.8s-0.7-0.3-1.1-0.3s-0.8,0.1-1.1,0.3c-0.3,0.2-0.6,0.5-0.8,0.8
		c-0.2,0.3-0.3,0.7-0.3,1.1c0,0.4,0.1,0.8,0.3,1.1s0.5,0.6,0.8,0.8c0.3,0.2,0.7,0.3,1.1,0.3S264.7,159.7,265,159.5z"/>
	<path class="st1" d="M275.3,158.7l1.3-4.9h1.7l-2,7.5h-1.7l-1.4-4.7l-1.4,4.7h-1.7l-2-7.5h1.7l1.3,4.9l1.4-4.9h1.7L275.3,158.7z"/>
	<path class="st1" d="M280.3,158.2v1.5h3v1.5h-4.6v-7.5h4.6v1.5h-3v1.4h2.7v1.5H280.3z"/>
	<path class="st1" d="M288.5,161.2l-1.4-2.5H286v2.5h-1.6v-7.5h3.1c0.5,0,0.9,0.1,1.3,0.3c0.4,0.2,0.7,0.5,0.9,0.9
		c0.2,0.4,0.3,0.8,0.3,1.3c0,0.4-0.1,0.9-0.3,1.2c-0.2,0.4-0.5,0.7-0.9,0.9l1.6,2.8H288.5z M286,155.3v1.9h1.5
		c0.3,0,0.5-0.1,0.7-0.3c0.2-0.2,0.3-0.4,0.3-0.7c0-0.3-0.1-0.5-0.3-0.7s-0.4-0.3-0.7-0.3H286z"/>
	<path class="st1" d="M292.5,158.2v1.5h3v1.5h-4.6v-7.5h4.6v1.5h-3v1.4h2.7v1.5H292.5z"/>
	<path class="st1" d="M301.6,154.3c0.6,0.3,1,0.8,1.4,1.4c0.3,0.6,0.5,1.2,0.5,1.9c0,0.7-0.2,1.3-0.5,1.9c-0.3,0.6-0.8,1-1.4,1.3
		c-0.6,0.3-1.2,0.5-1.9,0.5h-3.1v-7.5h3.1C300.4,153.8,301,153.9,301.6,154.3z M299.7,159.7c0.4,0,0.8-0.1,1.1-0.3
		c0.3-0.2,0.6-0.5,0.8-0.8c0.2-0.3,0.3-0.7,0.3-1.1c0-0.4-0.1-0.8-0.3-1.1c-0.2-0.3-0.5-0.6-0.8-0.8c-0.3-0.2-0.7-0.3-1.1-0.3h-1.5
		v4.4H299.7z"/>
	<path class="st1" d="M312.8,158c0.1,0.3,0.2,0.6,0.2,0.9c0,0.4-0.1,0.8-0.3,1.2c-0.2,0.4-0.5,0.6-0.8,0.8c-0.3,0.2-0.7,0.3-1.1,0.3
		H309v0h-1.6v-7.5h3.3c0.4,0,0.7,0.1,1,0.3c0.3,0.2,0.6,0.5,0.8,0.8c0.2,0.3,0.3,0.7,0.3,1.1c0,0.2,0,0.5-0.1,0.7
		c-0.1,0.2-0.2,0.4-0.3,0.6C312.5,157.4,312.7,157.7,312.8,158z M309,155.3v1.4l1.7,0c0.2,0,0.3-0.1,0.4-0.2
		c0.1-0.1,0.2-0.3,0.2-0.5c0-0.2-0.1-0.4-0.2-0.5c-0.1-0.1-0.3-0.2-0.4-0.2H309z M310.8,159.7c0.2,0,0.3-0.1,0.5-0.2
		c0.1-0.2,0.2-0.3,0.2-0.6c0-0.2-0.1-0.4-0.2-0.6c-0.1-0.2-0.3-0.2-0.5-0.2H309v1.6H310.8z"/>
	<path class="st1" d="M316.8,156.8l1.7-3h1.8l-2.7,4.9v2.6H316v-2.6l-2.7-4.9h1.8L316.8,156.8z"/>
	<path class="st1" d="M330.6,158.7l1.3-4.9h1.7l-2,7.5h-1.7l-1.4-4.7l-1.4,4.7h-1.7l-2-7.5h1.7l1.3,4.9l1.4-4.9h1.7L330.6,158.7z"/>
	<path class="st1" d="M335.7,158.2v1.5h3v1.5h-4.6v-7.5h4.6v1.5h-3v1.4h2.7v1.5H335.7z"/>
	<path class="st1" d="M345.3,158c0.1,0.3,0.2,0.6,0.2,0.9c0,0.4-0.1,0.8-0.3,1.2c-0.2,0.4-0.5,0.6-0.8,0.8c-0.3,0.2-0.7,0.3-1.1,0.3
		h-1.9v0h-1.6v-7.5h3.3c0.4,0,0.7,0.1,1,0.3c0.3,0.2,0.6,0.5,0.8,0.8c0.2,0.3,0.3,0.7,0.3,1.1c0,0.2,0,0.5-0.1,0.7
		c-0.1,0.2-0.2,0.4-0.3,0.6C345,157.4,345.2,157.7,345.3,158z M341.4,155.3v1.4l1.7,0c0.2,0,0.3-0.1,0.4-0.2
		c0.1-0.1,0.2-0.3,0.2-0.5c0-0.2-0.1-0.4-0.2-0.5c-0.1-0.1-0.3-0.2-0.4-0.2H341.4z M343.3,159.7c0.2,0,0.3-0.1,0.5-0.2
		c0.1-0.2,0.2-0.3,0.2-0.6c0-0.2-0.1-0.4-0.2-0.6c-0.1-0.2-0.3-0.2-0.5-0.2h-1.9v1.6H343.3z"/>
	<path class="st1" d="M347.9,158.2v1.5h3v1.5h-4.6v-7.5h4.6v1.5h-3v1.4h2.7v1.5H347.9z"/>
	<path class="st1" d="M353.6,158.2v1.5h3v1.5H352v-7.5h4.6v1.5h-3v1.4h2.7v1.5H353.6z"/>
	<path class="st1" d="M362.8,153.8v1.5h-2v5.9h-1.6v-5.9h-2v-1.5H362.8z"/>
</g>
</svg>
