<?xml version="1.0" encoding="utf-8"?>
<!-- Generator: Adobe Illustrator 26.2.1, SVG Export Plug-In . SVG Version: 6.00 Build 0)  -->
<svg version="1.1" id="Livello_1" xmlns="http://www.w3.org/2000/svg" xmlns:xlink="http://www.w3.org/1999/xlink" x="0px" y="0px"
	 viewBox="0 0 500 500" style="enable-background:new 0 0 500 500;" xml:space="preserve">
<style type="text/css">
	.st0{fill:#FFFFFF;}
	.st1{fill:#03E9F4;}
	.st2{fill:#6F8AF7;}
	.st3{fill:#182E6B;}
</style>
<path class="st0" d="M190.3,212.8"/>
<path class="st1" d="M121.7,136.5C119.5,68.7,176.8,12,244.5,9.2c30.9-1.2,59.6,8.3,82.5,25.3c0,0,10.8,6.5,0,13L207.4,151.7
	c0,0-6,8.6-12.9-2.4l-24-30.6c0,0-4.3-5.8-10.7,0l-28.3,22.9C131.6,141.7,122.1,148.2,121.7,136.5z"/>
<path class="st2" d="M207.6,297.4c0,0,14.6,13.6,22.1,18.7c5.4,3.6,13.3,9.3,17.4,12.2c1.7,1.2,3.9,1.3,5.6,0.2
	c52.4-34.1,114.2-103.9,125.3-169.2c0,0,0.6-4.5,0-6.1c0,0-1.9-7.8-9.8-3L209.8,287.8C209.8,287.8,203.2,291.9,207.6,297.4z"/>
<path class="st3" d="M182,271.2c-8.5-9.9-16.6-20.2-23.6-31.3c-14.6-23.1-24.3-46-29.7-64.9c0,0-4.2-7.6,2.9-11.1l27.5-21.7
	c0,0,5.8-4.5,9.2,1.2l25.8,32.9c0,0,4.6,7.7,10.7,0.7l138-119.9c0,0,4.6-4.5,8.1,0c13,16.8,22.8,36.4,26.8,58.1c0,0,1.1,2.3-2.6,5.2
	L196.5,276.3c0,0-5.4,6.4-8.9,1.4L182,271.2z"/>
<g>
	<path class="st1" d="M63.3,364v10.6H42.6V385h20v10.6h-20v20.5H31.4V364H63.3z"/>
	<path class="st1" d="M111.6,416.1H99.7l-3.6-9.8H76.7l-3.6,9.8h-12L80.4,364h12L111.6,416.1z M86.4,380.2l-5.8,15.5h11.5
		L86.4,380.2z"/>
	<path class="st1" d="M114.4,376.7c2.4-4.1,5.7-7.4,9.8-9.8c4.1-2.4,8.6-3.6,13.5-3.6c5,0,9.6,1.3,13.8,3.9c4.2,2.6,7.5,6,9.8,10.2
		l-9.8,5.3c-1.4-2.5-3.3-4.5-5.7-5.9c-2.4-1.5-5.1-2.2-8-2.2c-2.8,0-5.4,0.7-7.9,2.1c-2.4,1.4-4.3,3.3-5.7,5.7
		c-1.4,2.4-2.1,5-2.1,7.9c0,2.8,0.7,5.4,2.1,7.9c1.4,2.4,3.3,4.3,5.7,5.7s5,2.1,7.8,2.1c2.9,0,5.6-0.8,8.1-2.3
		c2.5-1.5,4.4-3.5,5.7-6.1l9.9,5.4c-2.3,4.3-5.6,7.7-9.9,10.3s-8.9,3.9-13.9,3.9c-4.9,0-9.4-1.2-13.5-3.6c-4.1-2.4-7.4-5.7-9.8-9.8
		c-2.4-4.1-3.6-8.6-3.6-13.5S112,380.8,114.4,376.7z"/>
	<path class="st1" d="M202.7,364v10.6h-13.8v41.6h-11.2v-41.6H164V364H202.7z"/>
	<path class="st1" d="M229,376.7c2.4-4.1,5.7-7.4,9.8-9.8c4.1-2.4,8.6-3.6,13.5-3.6c5,0,9.6,1.3,13.8,3.9c4.2,2.6,7.5,6,9.8,10.2
		l-9.8,5.3c-1.4-2.5-3.3-4.5-5.7-5.9c-2.4-1.5-5.1-2.2-8-2.2c-2.8,0-5.4,0.7-7.9,2.1c-2.4,1.4-4.3,3.3-5.7,5.7
		c-1.4,2.4-2.1,5-2.1,7.9c0,2.8,0.7,5.4,2.1,7.9c1.4,2.4,3.3,4.3,5.7,5.7s5,2.1,7.8,2.1c2.9,0,5.6-0.8,8.1-2.3
		c2.5-1.5,4.4-3.5,5.7-6.1l9.9,5.4c-2.3,4.3-5.6,7.7-9.9,10.3c-4.2,2.6-8.9,3.9-13.9,3.9c-4.9,0-9.4-1.2-13.5-3.6
		c-4.1-2.4-7.4-5.7-9.8-9.8c-2.4-4.1-3.6-8.6-3.6-13.5S226.6,380.8,229,376.7z"/>
	<path class="st1" d="M314.6,384.1V364h11.2v52.1h-11.2v-21.4h-22.5v21.4h-11.2V364h11.2v20.1H314.6z"/>
	<path class="st1" d="M347,394.9v10.6h21.1v10.6h-32.3V364h31.9v10.6H347v9.7h18.9v10.6H347z"/>
	<path class="st1" d="M375.4,376.7c2.4-4.1,5.7-7.4,9.8-9.8c4.1-2.4,8.6-3.6,13.5-3.6c5,0,9.6,1.3,13.8,3.9c4.2,2.6,7.5,6,9.8,10.2
		l-9.8,5.3c-1.4-2.5-3.3-4.5-5.7-5.9c-2.4-1.5-5.1-2.2-8-2.2c-2.8,0-5.4,0.7-7.9,2.1c-2.4,1.4-4.3,3.3-5.7,5.7
		c-1.4,2.4-2.1,5-2.1,7.9c0,2.8,0.7,5.4,2.1,7.9c1.4,2.4,3.3,4.3,5.7,5.7s5,2.1,7.8,2.1c2.9,0,5.6-0.8,8.1-2.3
		c2.5-1.5,4.4-3.5,5.7-6.1l9.9,5.4c-2.3,4.3-5.6,7.7-9.9,10.3c-4.2,2.6-8.9,3.9-13.9,3.9c-4.9,0-9.4-1.2-13.5-3.6
		c-4.1-2.4-7.4-5.7-9.8-9.8c-2.4-4.1-3.6-8.6-3.6-13.5S373,380.8,375.4,376.7z"/>
	<path class="st1" d="M473.4,416l-14,0.1l-15.2-19.5l-5,6v13.6h-11.2V364h11.2v21l17.7-21h14.4l-19.8,23.8L473.4,416z"/>
</g>
<g>
	<path class="st1" d="M163.6,450.6v8h16v8.1h-24.5v-39.5h24.1v8h-15.7v7.3h14.3v8.1H163.6z"/>
	<path class="st1" d="M208.2,449.7v-22.5h8.5v39.5h-7.2L193.8,442v24.7h-8.5v-39.5h8.5L208.2,449.7z"/>
	<path class="st1" d="M240.2,445.2h21.5v3.6c0,3.3-0.9,6.4-2.7,9.3c-1.8,2.9-4.2,5.1-7.3,6.8s-6.4,2.5-10,2.5
		c-3.7,0-7.1-0.9-10.2-2.8c-3.1-1.8-5.6-4.3-7.4-7.4c-1.8-3.1-2.7-6.5-2.7-10.2c0-3.7,0.9-7.1,2.7-10.2c1.8-3.1,4.3-5.6,7.4-7.4
		c3.1-1.8,6.5-2.7,10.2-2.7c3.3,0,6.4,0.8,9.3,2.3c2.9,1.5,5.3,3.6,7.1,6.1l-6.7,5.2c-1.1-1.6-2.4-2.8-4.1-3.8
		c-1.7-0.9-3.6-1.4-5.6-1.4c-2.1,0-4.1,0.5-5.9,1.6c-1.8,1.1-3.3,2.5-4.3,4.3c-1.1,1.8-1.6,3.8-1.6,5.9s0.5,4.1,1.6,5.9
		c1.1,1.8,2.5,3.3,4.3,4.3s3.8,1.6,5.9,1.6c2.2,0,4.2-0.5,6-1.5c1.8-1,3.2-2.4,4.1-4.2h-11.7V445.2z"/>
	<path class="st1" d="M267.2,466.7v-39.5h8.5v39.5H267.2z"/>
	<path class="st1" d="M306.2,449.7v-22.5h8.5v39.5h-7.2L291.8,442v24.7h-8.5v-39.5h8.5L306.2,449.7z"/>
	<path class="st1" d="M330.8,450.6v8h16v8.1h-24.5v-39.5h24.1v8h-15.7v7.3h14.3v8.1H330.8z"/>
</g>
<g>
	<path class="st2" d="M190.3,477.7c0.5,0.3,0.8,0.6,1.1,1.1c0.3,0.5,0.4,1,0.4,1.5c0,0.5-0.1,1-0.4,1.5c-0.3,0.5-0.6,0.8-1.1,1.1
		c-0.5,0.3-1,0.4-1.5,0.4h-1.4v3h-1.9v-8.9h3.3C189.3,477.3,189.8,477.4,190.3,477.7z M188.8,481.4c0.3,0,0.6-0.1,0.8-0.3
		c0.2-0.2,0.3-0.5,0.3-0.8c0-0.3-0.1-0.6-0.3-0.8c-0.2-0.2-0.5-0.3-0.8-0.3h-1.4v2.3H188.8z"/>
	<path class="st2" d="M194.4,485.8c-0.7-0.4-1.3-1-1.7-1.7c-0.4-0.7-0.6-1.5-0.6-2.3s0.2-1.6,0.6-2.3c0.4-0.7,1-1.3,1.7-1.7
		s1.5-0.6,2.3-0.6s1.6,0.2,2.3,0.6s1.3,1,1.7,1.7s0.6,1.5,0.6,2.3s-0.2,1.6-0.6,2.3s-1,1.3-1.7,1.7c-0.7,0.4-1.5,0.6-2.3,0.6
		S195.2,486.2,194.4,485.8z M198.1,484.1c0.4-0.2,0.7-0.6,1-1c0.2-0.4,0.4-0.9,0.4-1.3s-0.1-0.9-0.4-1.3c-0.2-0.4-0.6-0.7-1-1
		c-0.4-0.2-0.9-0.4-1.3-0.4c-0.5,0-0.9,0.1-1.3,0.4c-0.4,0.2-0.7,0.6-1,1s-0.4,0.9-0.4,1.3s0.1,0.9,0.4,1.3s0.6,0.7,1,1
		c0.4,0.2,0.9,0.4,1.3,0.4C197.2,484.5,197.7,484.3,198.1,484.1z"/>
	<path class="st2" d="M210.4,483.1l1.5-5.8h2l-2.5,8.9h-2.1l-1.7-5.6l-1.7,5.6H204l-2.5-8.9h2l1.5,5.8l1.7-5.8h2L210.4,483.1z"/>
	<path class="st2" d="M216.5,482.6v1.8h3.6v1.8h-5.5v-8.9h5.5v1.8h-3.5v1.7h3.2v1.8H216.5z"/>
	<path class="st2" d="M226.2,486.2l-1.7-3h-1.4v3h-1.9v-8.9h3.7c0.5,0,1,0.1,1.5,0.4c0.5,0.3,0.8,0.6,1.1,1.1c0.3,0.5,0.4,1,0.4,1.5
		c0,0.5-0.1,1-0.4,1.5c-0.3,0.5-0.6,0.8-1.1,1.1l1.9,3.4H226.2z M223.2,479.1v2.3h1.8c0.3,0,0.6-0.1,0.8-0.3
		c0.2-0.2,0.3-0.5,0.3-0.8c0-0.3-0.1-0.6-0.3-0.8c-0.2-0.2-0.5-0.3-0.8-0.3H223.2z"/>
	<path class="st2" d="M231.1,482.6v1.8h3.6v1.8h-5.5v-8.9h5.5v1.8h-3.5v1.7h3.2v1.8H231.1z"/>
	<path class="st2" d="M242,477.9c0.7,0.4,1.3,0.9,1.7,1.6c0.4,0.7,0.6,1.4,0.6,2.3s-0.2,1.6-0.6,2.3c-0.4,0.7-1,1.2-1.7,1.6
		c-0.7,0.4-1.5,0.6-2.3,0.6H236v-8.9h3.7C240.5,477.3,241.2,477.5,242,477.9z M239.6,484.4c0.5,0,0.9-0.1,1.3-0.4
		c0.4-0.2,0.7-0.6,1-1c0.2-0.4,0.4-0.8,0.4-1.3s-0.1-0.9-0.4-1.3c-0.2-0.4-0.6-0.7-1-1c-0.4-0.2-0.9-0.4-1.3-0.4h-1.7v5.3H239.6z"/>
	<path class="st2" d="M255.4,482.3c0.2,0.3,0.2,0.7,0.2,1.1c0,0.5-0.1,1-0.4,1.4s-0.6,0.8-1,1s-0.8,0.4-1.3,0.4h-2.2v0h-1.9v-8.9
		h3.9c0.5,0,0.9,0.1,1.3,0.4s0.7,0.5,0.9,0.9c0.2,0.4,0.3,0.8,0.3,1.3c0,0.3,0,0.6-0.1,0.8c-0.1,0.3-0.2,0.5-0.4,0.7
		C255,481.7,255.2,482,255.4,482.3z M250.7,479.1v1.6l2,0c0.2,0,0.4-0.1,0.5-0.2c0.2-0.2,0.2-0.4,0.2-0.6c0-0.2-0.1-0.4-0.2-0.6
		s-0.3-0.2-0.5-0.2H250.7z M253,484.4c0.2,0,0.4-0.1,0.6-0.3c0.2-0.2,0.2-0.4,0.2-0.7c0-0.3-0.1-0.5-0.2-0.7
		c-0.2-0.2-0.4-0.3-0.6-0.3h-2.2v1.9H253z"/>
	<path class="st2" d="M260.1,480.9l2-3.6h2.2l-3.2,5.8v3.1h-1.9v-3.1l-3.2-5.8h2.2L260.1,480.9z"/>
	<path class="st2" d="M276.7,483.1l1.5-5.8h2l-2.5,8.9h-2.1l-1.7-5.6l-1.7,5.6h-2.1l-2.5-8.9h2l1.5,5.8l1.7-5.8h2L276.7,483.1z"/>
	<path class="st2" d="M282.8,482.6v1.8h3.6v1.8h-5.5v-8.9h5.5v1.8h-3.5v1.7h3.2v1.8H282.8z"/>
	<path class="st2" d="M294.2,482.3c0.2,0.3,0.2,0.7,0.2,1.1c0,0.5-0.1,1-0.4,1.4s-0.6,0.8-1,1s-0.8,0.4-1.3,0.4h-2.2v0h-1.9v-8.9
		h3.9c0.5,0,0.9,0.1,1.3,0.4s0.7,0.5,0.9,0.9c0.2,0.4,0.3,0.8,0.3,1.3c0,0.3,0,0.6-0.1,0.8c-0.1,0.3-0.2,0.5-0.4,0.7
		C293.9,481.7,294.1,482,294.2,482.3z M289.6,479.1v1.6l2,0c0.2,0,0.4-0.1,0.5-0.2c0.2-0.2,0.2-0.4,0.2-0.6c0-0.2-0.1-0.4-0.2-0.6
		s-0.3-0.2-0.5-0.2H289.6z M291.8,484.4c0.2,0,0.4-0.1,0.6-0.3c0.2-0.2,0.2-0.4,0.2-0.7c0-0.3-0.1-0.5-0.2-0.7
		c-0.2-0.2-0.4-0.3-0.6-0.3h-2.2v1.9H291.8z"/>
	<path class="st2" d="M297.3,482.6v1.8h3.6v1.8h-5.5v-8.9h5.5v1.8h-3.5v1.7h3.2v1.8H297.3z"/>
	<path class="st2" d="M304.2,482.6v1.8h3.6v1.8h-5.5v-8.9h5.5v1.8h-3.5v1.7h3.2v1.8H304.2z"/>
	<path class="st2" d="M315.3,477.3v1.8h-2.4v7.1H311v-7.1h-2.3v-1.8H315.3z"/>
</g>
</svg>
