<?xml version="1.0" encoding="utf-8"?>
<!-- Generator: Adobe Illustrator 26.2.1, SVG Export Plug-In . SVG Version: 6.00 Build 0)  -->
<svg version="1.1" id="Livello_1" xmlns="http://www.w3.org/2000/svg" xmlns:xlink="http://www.w3.org/1999/xlink" x="0px" y="0px"
	 viewBox="0 0 500 500" style="enable-background:new 0 0 500 500;" xml:space="preserve">
<style type="text/css">
	.st0{fill:#FFFFFF;}
	.st1{fill:#03E9F4;}
	.st2{fill:#6F8AF7;}
	.st3{fill:#182E6B;}
</style>
<g>
	<path class="st0" d="M160.2,315.6"/>
	<path class="st1" d="M57,200.7C53.8,98.8,139.9,13.5,241.8,9.4c46.5-1.9,89.6,12.5,124.1,38c0,0,16.3,9.7,0,19.5L185.9,223.7
		c0,0-9,12.9-19.3-3.5l-36.1-46.1c0,0-6.4-8.7-16.1,0l-42.5,34.5C71.9,208.5,57.6,218.4,57,200.7z"/>
	<path class="st2" d="M186.3,442.8c0,0,21.9,20.4,33.3,28.1c8.1,5.5,19.9,14,26.1,18.4c2.5,1.8,5.8,1.9,8.4,0.2
		c78.8-51.4,171.7-156.2,188.5-254.5c0,0,1-6.7,0-9.1c0,0-2.9-11.7-14.8-4.5L189.6,428.3C189.6,428.3,179.7,434.5,186.3,442.8z"/>
	<path class="st3" d="M147.8,403.4c-12.8-14.9-25-30.4-35.6-47c-22-34.7-36.6-69.2-44.7-97.5c0,0-6.3-11.5,4.3-16.7l41.3-32.6
		c0,0,8.8-6.8,13.8,1.9l38.8,49.5c0,0,6.9,11.5,16.2,1.1L389.5,81.6c0,0,6.9-6.8,12.2,0c19.6,25.3,34.2,54.8,40.4,87.4
		c0,0,1.6,3.5-3.9,7.9L169.5,411c0,0-8.2,9.6-13.4,2L147.8,403.4z"/>
</g>
</svg>
